<svg width="8" height="12" viewBox="0 0 8 12" fill="none" xmlns="http://www.w3.org/2000/svg">
<path d="M7.29405 6.02252C7.29465 6.12654 7.27471 6.22967 7.23538 6.32597C7.19604 6.42228 7.13808 6.50987 7.06482 6.58373L2.32217 11.3264C2.17333 11.4752 1.97146 11.5588 1.76096 11.5588C1.55046 11.5588 1.34859 11.4752 1.19975 11.3264C1.0509 11.1775 0.967285 10.9757 0.967285 10.7652C0.967285 10.5547 1.0509 10.3528 1.19975 10.2039L5.38909 6.02252L1.20765 1.84108C1.07816 1.68987 1.01049 1.49536 1.01818 1.29642C1.02586 1.09749 1.10833 0.90878 1.2491 0.768007C1.38987 0.627234 1.57858 0.544767 1.77752 0.537082C1.97645 0.529398 2.17096 0.597064 2.32218 0.726559L7.06482 5.46921C7.21085 5.61644 7.29318 5.81515 7.29405 6.02252Z" fill="white"/>
</svg>
