<svg width="428" height="800" viewBox="0 0 428 800" fill="none" xmlns="http://www.w3.org/2000/svg">
<g clip-path="url(#clip0_23_15)">
<rect width="428" height="800" fill="white"/>
<path fill-rule="evenodd" clip-rule="evenodd" d="M1051 -22H-267.291V287.431V423.838V444.617C-262.856 444.617 -258.421 448.032 -253.986 451.448C-250.982 453.762 -247.978 456.076 -244.973 457.328C-237.108 460.556 -231.998 458.533 -226.57 456.384C-223.655 455.231 -220.65 454.041 -217.076 453.608C-194.449 450.817 -185.15 477.48 -183.6 495.772C-181.12 521.504 -174.921 537.936 -147.334 543.206C-137.456 545.154 -128.639 542.918 -119.903 540.702C-109.176 537.98 -98.5709 535.29 -86.2706 540.416C-69.0273 547.53 -63.6245 559.891 -57.6599 573.538C-55.0469 579.517 -52.3261 585.742 -48.4547 591.881C-33.5763 615.443 -14.3583 624.124 7.33932 600.562C13.4731 594.004 16.6482 585.352 19.7329 576.947C25.6895 560.717 31.309 545.406 57.2439 547.857C72.7422 549.717 81.7313 562.738 82.9712 577.62C85.7608 612.653 85.7609 645.826 78.0117 679.929C76.1764 687.884 73.3556 696.257 70.4661 704.834C63.1073 726.678 55.3036 749.842 62.2034 770.768C68.4027 789.68 83.2811 808.592 104.359 811.692C119.857 813.862 135.355 804.251 143.725 792.47C160.379 768.786 151.037 737.454 143.024 710.58C141.492 705.443 140.009 700.468 138.765 695.741C133.186 674.349 129.466 652.027 128.536 630.015C127.606 610.483 130.396 567.078 162.323 578.86C170.325 581.925 175.335 588.639 180.383 595.404C184.524 600.955 188.692 606.54 194.559 610.173C211.297 620.714 232.995 619.164 251.593 616.993C271.121 614.823 291.579 597.771 301.808 581.65C306.077 574.868 309.939 565.735 314.059 555.991C325.197 529.652 338.224 498.847 366.281 497.942C380.539 497.632 392.628 504.762 402.547 514.063C427.344 537.316 449.661 554.987 478.798 522.124C483.588 516.75 487.276 510.583 490.943 504.453C497.006 494.317 503.008 484.282 513.825 478.1C531.803 467.869 553.81 471.279 569.619 482.75C583.301 492.768 589.153 508.885 594.884 524.673C601.748 543.578 608.44 562.012 628.202 568.939C658.579 579.48 675.937 561.188 689.576 536.386C700.734 516.234 723.672 496.392 747.229 510.343C750.695 512.495 753.516 515.245 756.313 517.973C760.771 522.32 765.17 526.61 772.027 528.325C783.462 531.134 790.223 526.151 797.52 520.772C801.497 517.841 805.633 514.792 810.772 512.823C849.208 498.562 864.397 546.307 856.028 575.139C855.372 577.302 854.676 579.478 853.976 581.665C851.363 589.826 848.702 598.139 847.969 606.452C845.489 632.805 862.227 671.869 893.534 670.629C917.091 669.698 935.379 655.127 939.719 631.565C942.952 613.872 938.365 595.128 933.837 576.623C930.986 564.972 928.158 553.416 927.32 542.276C926.08 524.914 930.11 502.282 949.328 496.702C954.597 495.152 961.726 494.531 966.686 496.392C971.983 498.158 974.866 501.634 977.742 505.102C979.914 507.721 982.082 510.335 985.284 512.203C1006.67 524.604 1018.76 497.012 1022.17 480.27C1022.36 479.355 1022.55 478.438 1022.74 477.523C1026.2 460.783 1029.54 444.617 1051 444.617V423.838V287.431V-22Z" fill="url(#paint0_linear_23_15)"/>
</g>
<defs>
<linearGradient id="paint0_linear_23_15" x1="391.853" y1="-22" x2="391.853" y2="812" gradientUnits="userSpaceOnUse">
<stop stop-color="#FFF3D9"/>
<stop offset="1" stop-color="#FFF3D9" stop-opacity="0.17"/>
</linearGradient>
<clipPath id="clip0_23_15">
<rect width="428" height="800" fill="white"/>
</clipPath>
</defs>
</svg>
