<svg width="26" height="25" viewBox="0 0 26 25" fill="none" xmlns="http://www.w3.org/2000/svg">
<path d="M3.89637 23.4999C3.47501 23.4999 3.05364 23.3391 2.73223 23.0177C2.08926 22.3747 2.08926 21.3324 2.73223 20.6894L21.9395 1.48212C22.5823 0.839292 23.625 0.839292 24.2678 1.48212C24.9108 2.12509 24.9108 3.16745 24.2678 3.81042L5.06052 23.0177C4.7391 23.3391 4.31774 23.4999 3.89637 23.4999Z" fill="#442E00"/>
<path d="M23.1036 23.4999C22.6823 23.4999 22.2609 23.3391 21.9395 23.0177L2.73223 3.81042C2.08926 3.16745 2.08926 2.12509 2.73223 1.48212C3.37506 0.839292 4.41768 0.839292 5.06052 1.48212L24.2678 20.6894C24.9108 21.3324 24.9108 22.3747 24.2678 23.0177C23.9464 23.3391 23.525 23.4999 23.1036 23.4999Z" fill="#442E00"/>
</svg>
