<svg width="1440" height="912" viewBox="0 0 1440 912" fill="none" xmlns="http://www.w3.org/2000/svg">
<g clip-path="url(#clip0_34_94)">
<path fill-rule="evenodd" clip-rule="evenodd" d="M1440 0.5H0V338.5V487.5V510.198C4.84436 510.198 9.68873 513.929 14.5331 517.66C17.8148 520.187 21.0964 522.715 24.3781 524.082C32.9701 527.608 38.5518 525.398 44.4811 523.051C47.6642 521.791 50.9476 520.492 54.8507 520.018C79.5674 516.971 89.7249 546.095 91.4178 566.075C94.1265 594.184 100.898 612.132 131.032 617.889C141.822 620.018 151.453 617.574 160.995 615.154C172.713 612.181 184.297 609.242 197.733 614.842C216.569 622.613 222.47 636.115 228.986 651.022C231.84 657.553 234.812 664.352 239.041 671.058C255.293 696.796 276.285 706.278 299.986 680.54C306.686 673.377 310.154 663.927 313.524 654.746C320.03 637.017 326.169 620.292 354.498 622.969C371.427 625.001 381.246 639.225 382.601 655.48C385.648 693.748 385.648 729.984 377.183 767.236C375.178 775.925 372.097 785.071 368.941 794.44C360.903 818.301 352.379 843.603 359.915 866.461C366.687 887.119 382.939 907.777 405.963 911.164C422.892 913.534 439.821 903.036 448.963 890.167C467.155 864.296 456.95 830.071 448.198 800.717C446.525 795.105 444.904 789.671 443.546 784.507C437.451 761.14 433.388 736.757 432.372 712.713C431.357 691.377 434.404 643.966 469.278 656.835C478.02 660.183 483.492 667.517 489.006 674.907C493.53 680.97 498.082 687.07 504.491 691.039C522.775 702.553 546.475 700.86 566.791 698.489C588.121 696.119 610.468 677.493 621.641 659.883C626.304 652.475 630.523 642.499 635.024 631.855C647.191 603.084 661.42 569.435 692.067 568.446C707.642 568.107 720.846 575.896 731.681 586.056C758.768 611.455 783.146 630.758 814.973 594.861C820.204 588.99 824.234 582.254 828.239 575.558C834.862 564.486 841.418 553.525 853.233 546.772C872.871 535.597 896.91 539.322 914.178 551.852C929.124 562.794 935.516 580.399 941.777 597.645C949.274 618.296 956.584 638.432 978.171 645.998C1011.35 657.512 1030.31 637.531 1045.21 610.439C1057.4 588.427 1082.45 566.753 1108.19 581.992C1111.97 584.342 1115.05 587.347 1118.11 590.326C1122.98 595.075 1127.78 599.761 1135.27 601.634C1147.77 604.703 1155.15 599.259 1163.12 593.384C1167.47 590.182 1171.98 586.852 1177.6 584.701C1219.58 569.123 1236.17 621.276 1227.03 652.771C1226.31 655.133 1225.55 657.51 1224.79 659.899C1221.94 668.813 1219.03 677.894 1218.23 686.975C1215.52 715.76 1233.8 758.431 1268 757.076C1293.73 756.06 1313.71 740.144 1318.45 714.406C1321.98 695.079 1316.97 674.605 1312.02 654.392C1308.91 641.665 1305.82 629.042 1304.9 616.874C1303.55 597.909 1307.95 573.187 1328.94 567.091C1334.7 565.398 1342.49 564.721 1347.91 566.753C1353.69 568.682 1356.84 572.479 1359.98 576.267C1362.35 579.128 1364.72 581.984 1368.22 584.024C1391.58 597.57 1404.79 567.43 1408.51 549.143C1408.72 548.143 1408.93 547.142 1409.14 546.142C1412.91 527.857 1416.56 510.198 1440 510.198V487.5V338.5V0.5Z" fill="url(#paint0_linear_34_94)"/>
</g>
<defs>
<linearGradient id="paint0_linear_34_94" x1="720" y1="0.5" x2="720" y2="911.5" gradientUnits="userSpaceOnUse">
<stop stop-color="#3422FF"/>
<stop offset="1" stop-color="#7976FF" stop-opacity="0.17"/>
</linearGradient>
<clipPath id="clip0_34_94">
<rect width="1440" height="911" fill="white" transform="translate(0 0.5)"/>
</clipPath>
</defs>
</svg>
