<svg width="1440" height="423" viewBox="0 0 1440 423" fill="none" xmlns="http://www.w3.org/2000/svg">
<g clip-path="url(#clip0_77_34)">
<path fill-rule="evenodd" clip-rule="evenodd" d="M1440 -488H0V-150V-1V21.6975C4.84436 21.6975 9.68873 25.4286 14.5331 29.1597C17.8148 31.6872 21.0964 34.2147 24.3781 35.5823C32.9701 39.108 38.5518 36.8985 44.4811 34.5515C47.6642 33.2914 50.9476 31.9917 54.8507 31.5185C79.5674 28.4706 89.7249 57.5948 91.4178 77.5754C94.1265 105.684 100.898 123.632 131.032 129.39C141.822 131.518 151.453 129.074 160.995 126.654C172.713 123.681 184.297 120.742 197.733 126.342C216.569 134.113 222.47 147.615 228.986 162.522C231.84 169.052 234.812 175.852 239.041 182.558C255.293 208.296 276.285 217.778 299.986 192.04C306.686 184.877 310.154 175.427 313.524 166.246C320.03 148.517 326.169 131.792 354.498 134.469C371.427 136.501 381.246 150.725 382.601 166.98C385.648 205.248 385.648 241.484 377.183 278.736C375.178 287.425 372.097 296.571 368.941 305.94C360.903 329.801 352.379 355.103 359.915 377.961C366.687 398.619 382.939 419.277 405.963 422.664C422.892 425.034 439.821 414.536 448.963 401.667C467.155 375.796 456.95 341.571 448.198 312.217C446.525 306.605 444.904 301.171 443.546 296.007C437.451 272.64 433.388 248.257 432.372 224.213C431.357 202.877 434.404 155.466 469.278 168.335C478.02 171.683 483.492 179.017 489.006 186.407C493.53 192.47 498.082 198.57 504.491 202.539C522.775 214.053 546.475 212.36 566.791 209.989C588.121 207.619 610.468 188.993 621.641 171.383C626.304 163.975 630.523 153.999 635.024 143.355C647.191 114.584 661.42 80.9349 692.067 79.946C707.642 79.6074 720.846 87.3964 731.681 97.556C758.768 122.955 783.146 142.258 814.973 106.361C820.204 100.49 824.234 93.7538 828.239 87.0579C834.862 75.9861 841.418 65.0251 853.233 58.2722C872.871 47.0966 896.91 50.8218 914.178 63.352C929.124 74.2942 935.516 91.8992 941.777 109.145C949.274 129.796 956.584 149.932 978.171 157.498C1011.35 169.012 1030.31 149.031 1045.21 121.939C1057.4 99.9266 1082.45 78.2527 1108.19 93.4922C1111.97 95.8423 1115.05 98.8468 1118.11 101.826C1122.98 106.575 1127.78 111.261 1135.27 113.134C1147.77 116.203 1155.15 110.759 1163.12 104.884C1167.47 101.682 1171.98 98.3517 1177.6 96.2014C1219.58 80.6233 1236.17 132.776 1227.03 164.271C1226.31 166.633 1225.55 169.01 1224.79 171.399C1221.94 180.313 1219.03 189.394 1218.23 198.475C1215.52 227.26 1233.8 269.931 1268 268.576C1293.73 267.56 1313.71 251.644 1318.45 225.906C1321.98 206.579 1316.97 186.105 1312.02 165.892C1308.91 153.165 1305.82 140.542 1304.9 128.374C1303.55 109.409 1307.95 84.6872 1328.94 78.5914C1334.7 76.8981 1342.49 76.2208 1347.91 78.2527C1353.69 80.1819 1356.84 83.9794 1359.98 87.7669C1362.35 90.6282 1364.72 93.4838 1368.22 95.5241C1391.58 109.07 1404.79 78.9301 1408.51 60.6428C1408.72 59.6426 1408.93 58.6416 1409.14 57.6425C1412.91 39.3569 1416.56 21.6975 1440 21.6975V-1V-150V-488Z" fill="url(#paint0_linear_77_34)"/>
</g>
<defs>
<linearGradient id="paint0_linear_77_34" x1="720" y1="-488" x2="720" y2="423" gradientUnits="userSpaceOnUse">
<stop stop-color="#FCF5E5"/>
<stop offset="1" stop-color="#FFF3D9"/>
</linearGradient>
<clipPath id="clip0_77_34">
<rect width="1440" height="423" fill="white"/>
</clipPath>
</defs>
</svg>
