<svg width="1440" height="424" viewBox="0 0 1440 424" fill="none" xmlns="http://www.w3.org/2000/svg">
<g clip-path="url(#clip0_17_9)">
<mask id="mask0_17_9" style="mask-type:alpha" maskUnits="userSpaceOnUse" x="0" y="-149" width="1440" height="573">
<path d="M1440 -149V22.6975C1415.28 22.6975 1412.57 42.3395 1408.51 61.6427C1404.79 79.9301 1391.58 110.07 1368.22 96.5241C1360.09 91.7829 1358.06 82.6393 1347.91 79.2527C1342.49 77.2208 1334.7 77.8981 1328.94 79.5914C1307.95 85.6872 1303.55 110.409 1304.9 129.374C1307.27 160.868 1324.2 195.411 1318.45 226.906C1313.71 252.644 1293.73 268.56 1268 269.576C1233.8 270.931 1215.52 228.26 1218.23 199.475C1219.24 187.961 1223.64 176.446 1227.03 165.271C1236.17 133.776 1219.58 81.6233 1177.6 97.2014C1161.68 103.297 1154.57 118.875 1135.27 114.134C1123.08 111.086 1118.01 100.588 1108.19 94.4922C1082.45 79.2527 1057.4 100.927 1045.21 122.939C1030.31 150.031 1011.35 170.012 978.171 158.498C938.556 144.613 947.021 88.3964 914.178 64.352C896.91 51.8218 872.871 48.0966 853.233 59.2722C834.272 70.1091 828.855 91.7829 814.973 107.361C783.146 143.258 758.768 123.955 731.681 98.556C720.847 88.3964 707.642 80.6074 692.067 80.946C650.082 82.3006 638.909 144.952 621.641 172.383C610.468 189.993 588.121 208.619 566.791 210.989C546.475 213.36 522.775 215.053 504.491 203.539C490.27 194.734 485.192 175.43 469.278 169.335C434.404 156.466 431.357 203.877 432.372 225.213C433.388 249.257 437.451 273.64 443.546 297.007C452.01 329.179 470.633 371.85 448.963 402.667C439.821 415.536 422.892 426.034 405.963 423.664C382.939 420.277 366.687 399.619 359.915 378.961C349.419 347.128 370.073 310.553 377.183 279.736C385.648 242.484 385.648 206.248 382.601 167.98C381.246 151.725 371.427 137.501 354.498 135.469C311.498 131.405 319.624 172.044 299.986 193.04C276.285 218.778 255.293 209.296 239.041 183.558C225.159 161.546 224.82 138.517 197.733 127.342C173.355 117.182 155.072 135.131 131.032 130.389C100.898 124.632 94.1265 106.684 91.4178 78.5754C89.7249 58.5948 79.5674 29.4706 54.8507 32.5185C43.6774 33.8731 37.5829 42.0008 24.3781 36.5823C16.2521 33.1958 8.12603 22.6975 0 22.6975V-149H1440Z" fill="#FCF5E5"/>
</mask>
<g mask="url(#mask0_17_9)">
<rect width="1440" height="424" fill="#FFF8E7"/>
</g>
</g>
<defs>
<clipPath id="clip0_17_9">
<rect width="1440" height="424" fill="white"/>
</clipPath>
</defs>
</svg>
