<svg width="1440" height="911" viewBox="0 0 1440 911" fill="none" xmlns="http://www.w3.org/2000/svg">
<path fill-rule="evenodd" clip-rule="evenodd" d="M1440 0H0V338V487V509.698C4.84436 509.698 9.68873 513.429 14.5331 517.16C17.8148 519.687 21.0964 522.215 24.3781 523.582C32.9701 527.108 38.5518 524.898 44.4811 522.551C47.6642 521.291 50.9476 519.992 54.8507 519.518C79.5674 516.471 89.7249 545.595 91.4178 565.575C94.1265 593.684 100.898 611.632 131.032 617.389C141.822 619.518 151.453 617.074 160.995 614.654C172.713 611.681 184.297 608.742 197.733 614.342C216.569 622.113 222.47 635.615 228.986 650.522C231.84 657.053 234.812 663.852 239.041 670.558C255.293 696.296 276.285 705.778 299.986 680.04C306.686 672.877 310.154 663.427 313.524 654.246C320.03 636.517 326.169 619.792 354.498 622.469C371.427 624.501 381.246 638.725 382.601 654.98C385.648 693.248 385.648 729.484 377.183 766.736C375.178 775.425 372.097 784.571 368.941 793.94C360.903 817.801 352.379 843.103 359.915 865.961C366.687 886.619 382.939 907.277 405.963 910.664C422.892 913.034 439.821 902.536 448.963 889.667C467.155 863.796 456.95 829.571 448.198 800.217C446.525 794.605 444.904 789.171 443.546 784.007C437.451 760.64 433.388 736.257 432.372 712.213C431.357 690.877 434.404 643.466 469.278 656.335C478.02 659.683 483.492 667.017 489.006 674.407C493.53 680.47 498.082 686.57 504.491 690.539C522.775 702.053 546.475 700.36 566.791 697.989C588.121 695.619 610.468 676.993 621.641 659.383C626.304 651.975 630.523 641.999 635.024 631.355C647.191 602.584 661.42 568.935 692.067 567.946C707.642 567.607 720.846 575.396 731.681 585.556C758.768 610.955 783.146 630.258 814.973 594.361C820.204 588.49 824.234 581.754 828.239 575.058C834.862 563.986 841.418 553.025 853.233 546.272C872.871 535.097 896.91 538.822 914.178 551.352C929.124 562.294 935.516 579.899 941.777 597.145C949.274 617.796 956.584 637.932 978.171 645.498C1011.35 657.012 1030.31 637.031 1045.21 609.939C1057.4 587.927 1082.45 566.253 1108.19 581.492C1111.97 583.842 1115.05 586.847 1118.11 589.826C1122.98 594.575 1127.78 599.261 1135.27 601.134C1147.77 604.203 1155.15 598.759 1163.12 592.884C1167.47 589.682 1171.98 586.352 1177.6 584.201C1219.58 568.623 1236.17 620.776 1227.03 652.271C1226.31 654.633 1225.55 657.01 1224.79 659.399C1221.94 668.313 1219.03 677.394 1218.23 686.475C1215.52 715.26 1233.8 757.931 1268 756.576C1293.73 755.56 1313.71 739.644 1318.45 713.906C1321.98 694.579 1316.97 674.105 1312.02 653.892C1308.91 641.165 1305.82 628.542 1304.9 616.374C1303.55 597.409 1307.95 572.687 1328.94 566.591C1334.7 564.898 1342.49 564.221 1347.91 566.253C1353.69 568.182 1356.84 571.979 1359.98 575.767C1362.35 578.628 1364.72 581.484 1368.22 583.524C1391.58 597.07 1404.79 566.93 1408.51 548.643C1408.72 547.643 1408.93 546.642 1409.14 545.642C1412.91 527.357 1416.56 509.698 1440 509.698V487V338V0Z" fill="url(#paint0_linear_161_4)"/>
<defs>
<linearGradient id="paint0_linear_161_4" x1="720" y1="0" x2="720" y2="911" gradientUnits="userSpaceOnUse">
<stop stop-color="#FFF3D9"/>
<stop offset="1" stop-color="#FFF3D9" stop-opacity="0.17"/>
</linearGradient>
</defs>
</svg>
