<svg width="8" height="12" viewBox="0 0 8 12" fill="none" xmlns="http://www.w3.org/2000/svg">
<path d="M0.705951 6.02252C0.70535 6.12654 0.725289 6.22967 0.764624 6.32597C0.803961 6.42228 0.861919 6.50987 0.935179 6.58373L5.67783 11.3264C5.82667 11.4752 6.02854 11.5588 6.23904 11.5588C6.44954 11.5588 6.65141 11.4752 6.80025 11.3264C6.9491 11.1775 7.03271 10.9757 7.03271 10.7652C7.03271 10.5547 6.9491 10.3528 6.80025 10.2039L2.61091 6.02252L6.79235 1.84108C6.92184 1.68987 6.98951 1.49536 6.98182 1.29642C6.97414 1.09749 6.89167 0.90878 6.7509 0.768007C6.61013 0.627234 6.42142 0.544767 6.22248 0.537082C6.02355 0.529398 5.82904 0.597064 5.67782 0.726559L0.935178 5.46921C0.789149 5.61644 0.706824 5.81515 0.705951 6.02252Z" fill="white"/>
</svg>
