<svg width="12" height="7" viewBox="0 0 12 7" fill="none" xmlns="http://www.w3.org/2000/svg">
<path d="M5.53632 -0.000102997C5.4323 -0.000704288 5.32917 0.0192347 5.23287 0.0585704C5.13656 0.0979066 5.04897 0.155865 4.97511 0.229125L0.232462 4.97177C0.0836192 5.12061 0 5.32249 0 5.53298C0 5.74348 0.0836192 5.94535 0.232462 6.0942C0.381305 6.24304 0.58318 6.32666 0.793675 6.32666C1.00417 6.32666 1.20605 6.24304 1.35489 6.0942L5.53632 1.90486L9.71776 6.08629C9.86897 6.21579 10.0635 6.28346 10.2624 6.27577C10.4613 6.26809 10.6501 6.18562 10.7908 6.04485C10.9316 5.90407 11.0141 5.71536 11.0218 5.51643C11.0294 5.31749 10.9618 5.12298 10.8323 4.97177L6.08963 0.229125C5.9424 0.0830951 5.74369 0.000770092 5.53632 -0.000102997Z" fill="white"/>
</svg>
