<svg width="25" height="25" viewBox="0 0 25 25" fill="none" xmlns="http://www.w3.org/2000/svg">
<path d="M15.1555 7.10547H9.84991C8.3388 7.10547 7.10547 8.33325 7.10547 9.84991V15.1555C7.10547 16.6666 8.33325 17.8999 9.84991 17.8999H15.1555C16.6666 17.8999 17.8999 16.6721 17.8999 15.1555V9.84991C17.8944 8.33325 16.6666 7.10547 15.1555 7.10547ZM12.4999 16.0499C10.5444 16.0499 8.94991 14.4555 8.94991 12.4999C8.94991 10.5444 10.5444 8.94991 12.4999 8.94991C14.4555 8.94991 16.0499 10.5444 16.0499 12.4999C16.0499 14.4555 14.4555 16.0499 12.4999 16.0499ZM16.2277 9.34436C15.8944 9.34436 15.6277 9.07769 15.6277 8.74436C15.6277 8.41102 15.8944 8.14436 16.2277 8.14436C16.561 8.14436 16.8277 8.41102 16.8277 8.74436C16.8277 9.07769 16.561 9.34436 16.2277 9.34436Z" fill="url(#paint0_radial_4_132)"/>
<path d="M14.658 12.5261C14.6723 11.3356 13.7188 10.3589 12.5283 10.3446C11.3379 10.3304 10.3612 11.2838 10.3469 12.4743C10.3326 13.6648 11.2861 14.6415 12.4766 14.6557C13.6671 14.67 14.6437 13.7165 14.658 12.5261Z" fill="url(#paint1_radial_4_132)"/>
<path d="M12.5 0C5.59444 0 0 5.59444 0 12.5C0 19.4056 5.59444 25 12.5 25C19.4056 25 25 19.4056 25 12.5C25 5.59444 19.4056 0 12.5 0ZM19.4444 15.1556C19.4444 17.5222 17.5222 19.4444 15.1556 19.4444H9.85C7.48333 19.4444 5.56111 17.5222 5.56111 15.1556V9.85C5.56111 7.48333 7.48333 5.56111 9.85 5.56111H15.1556C17.5222 5.56111 19.4444 7.48333 19.4444 9.85V15.1556Z" fill="url(#paint2_radial_4_132)"/>
<defs>
<radialGradient id="paint0_radial_4_132" cx="0" cy="0" r="1" gradientUnits="userSpaceOnUse" gradientTransform="translate(12.5027 12.5027) rotate(-45.5255) scale(10.8643 5.77261)">
<stop stop-color="#F4C04F"/>
<stop offset="1" stop-color="#EFA606"/>
</radialGradient>
<radialGradient id="paint1_radial_4_132" cx="0" cy="0" r="1" gradientUnits="userSpaceOnUse" gradientTransform="translate(12.5025 12.5002) rotate(-134.838) scale(4.33934 2.30564)">
<stop stop-color="#F4C04F"/>
<stop offset="1" stop-color="#EFA606"/>
</radialGradient>
<radialGradient id="paint2_radial_4_132" cx="0" cy="0" r="1" gradientUnits="userSpaceOnUse" gradientTransform="translate(12.5 12.5) rotate(-45.5255) scale(25.1619 13.3694)">
<stop stop-color="#F4C04F"/>
<stop offset="1" stop-color="#EFA606"/>
</radialGradient>
</defs>
</svg>
