<svg width="26" height="25" viewBox="0 0 26 25" fill="none" xmlns="http://www.w3.org/2000/svg">
<g clip-path="url(#clip0_252_258)">
<path d="M24.2905 21.875H2.41554C1.55256 21.875 0.853027 21.1754 0.853027 20.3125C0.853027 19.4496 1.55256 18.75 2.41554 18.75H24.2906C25.1535 18.75 25.8531 19.4496 25.8531 20.3125C25.853 21.1754 25.1535 21.875 24.2905 21.875Z" fill="#442E00"/>
<path d="M24.2905 14.0625H2.41554C1.55256 14.0625 0.853027 13.363 0.853027 12.5C0.853027 11.6371 1.55256 10.9375 2.41554 10.9375H24.2906C25.1535 10.9375 25.8531 11.6371 25.8531 12.5C25.8531 13.363 25.1535 14.0625 24.2905 14.0625Z" fill="#442E00"/>
<path d="M24.2905 6.24999H2.41554C1.55256 6.24999 0.853027 5.55046 0.853027 4.68748C0.853027 3.8245 1.55256 3.12497 2.41554 3.12497H24.2906C25.1535 3.12497 25.8531 3.8245 25.8531 4.68748C25.8531 5.55046 25.1535 6.24999 24.2905 6.24999Z" fill="#442E00"/>
</g>
<defs>
<clipPath id="clip0_252_258">
<rect width="25" height="25" fill="white" transform="translate(0.853027)"/>
</clipPath>
</defs>
</svg>
