<svg width="50" height="50" viewBox="0 0 50 50" fill="none" xmlns="http://www.w3.org/2000/svg">
<rect width="50" height="50" rx="15" fill="#FFF1D0"/>
<path d="M17.3215 15.7768H18.6741V14.1339C18.6741 13.8839 18.875 13.6875 19.1206 13.6875C19.3661 13.6875 19.567 13.8839 19.567 14.1339V15.7768H21.7322V14.1339C21.7322 13.8839 21.9331 13.6875 22.1786 13.6875C22.4241 13.6875 22.625 13.8839 22.625 14.1339V15.7768H24.7857V14.1339C24.7857 13.8839 24.9866 13.6875 25.2322 13.6875C25.4777 13.6875 25.6786 13.8839 25.6786 14.1339V15.7768H27.8438V14.1339C27.8438 13.8839 28.0402 13.6875 28.2902 13.6875C28.5402 13.6875 28.7366 13.8839 28.7366 14.1339V15.7768H30.8974V14.1339C30.8974 13.8839 31.0982 13.6875 31.3438 13.6875C31.5893 13.6875 31.7902 13.8839 31.7902 14.1339V15.7768H33.1474C33.5581 15.7768 33.8929 15.4464 33.8929 15.0313V12.7455C33.8929 12.3348 33.5581 12 33.1474 12H17.3215C16.9107 12 16.5759 12.3348 16.5759 12.7455V15.0313C16.5759 15.4464 16.9107 15.7768 17.3215 15.7768Z" fill="url(#paint0_radial_11_170)"/>
<path d="M15 33.8972V34.7633C15 35.9954 16 36.9999 17.2366 36.9999H33.6161C34.8482 36.9999 35.8527 35.9999 35.8527 34.7633V33.8972H15Z" fill="url(#paint1_radial_11_170)"/>
<path d="M35.8482 21.1965H15V33.0046H35.8482V21.1965ZM17.5223 30.5581C17.5223 30.8037 17.3214 31.0046 17.0759 31.0046C16.8304 31.0046 16.6295 30.8037 16.6295 30.5581V23.4153C16.6295 23.1653 16.8304 22.9689 17.0759 22.9689C17.3214 22.9689 17.5223 23.1653 17.5223 23.4153V30.5581ZM24.9777 29.6965L23.4464 30.5805L21.9107 29.6965V27.9287L23.4464 27.0447L24.9777 27.9287V29.6965ZM23.8929 26.2724V24.5001L25.4241 23.6162L26.9554 24.5001V26.2724L25.4241 27.1564L23.8929 26.2724ZM28.9375 29.6965L27.4018 30.5805L25.8705 29.6965V27.9287L27.4018 27.0447L28.9375 27.9287V29.6965Z" fill="url(#paint2_radial_11_170)"/>
<path d="M34.6964 18.3571L33.0133 16.6741H17.8348L16.1517 18.3571C15.6785 18.9285 15.3437 19.5937 15.1606 20.3035H35.6919C35.5089 19.5937 35.174 18.9285 34.7008 18.3571H34.6964Z" fill="url(#paint3_radial_11_170)"/>
<defs>
<radialGradient id="paint0_radial_11_170" cx="0" cy="0" r="1" gradientUnits="userSpaceOnUse" gradientTransform="translate(25.2344 13.8884) rotate(-12.524) scale(12.5083 2.8143)">
<stop stop-color="#F4C04F"/>
<stop offset="1" stop-color="#EFA606"/>
</radialGradient>
<radialGradient id="paint1_radial_11_170" cx="0" cy="0" r="1" gradientUnits="userSpaceOnUse" gradientTransform="translate(25.4263 35.4486) rotate(-8.61731) scale(14.8717 2.3416)">
<stop stop-color="#F4C04F"/>
<stop offset="1" stop-color="#EFA606"/>
</radialGradient>
<radialGradient id="paint2_radial_11_170" cx="0" cy="0" r="1" gradientUnits="userSpaceOnUse" gradientTransform="translate(25.4241 27.1006) rotate(-29.9792) scale(16.9713 7.80738)">
<stop stop-color="#F4C04F"/>
<stop offset="1" stop-color="#EFA606"/>
</radialGradient>
<radialGradient id="paint3_radial_11_170" cx="0" cy="0" r="1" gradientUnits="userSpaceOnUse" gradientTransform="translate(25.4263 18.4888) rotate(-10.2068) scale(14.71 2.7266)">
<stop stop-color="#F4C04F"/>
<stop offset="1" stop-color="#EFA606"/>
</radialGradient>
</defs>
</svg>
